<?xml version="1.0" encoding="utf-8"?>
<!-- Generator: Adobe Illustrator 18.0.0, SVG Export Plug-In . SVG Version: 6.00 Build 0)  -->
<!DOCTYPE svg PUBLIC "-//W3C//DTD SVG 1.1//EN" "http://www.w3.org/Graphics/SVG/1.1/DTD/svg11.dtd">
<svg version="1.1" id="Layer_1" xmlns="http://www.w3.org/2000/svg" xmlns:xlink="http://www.w3.org/1999/xlink" x="0px" y="0px"
	 viewBox="0 0 257.3 28.3" enable-background="new 0 0 257.3 28.3" xml:space="preserve">
<g>
	<path fill="#FFFFFF" d="M0.4,4.9h0.2C1,5.8,1.5,6.3,2.2,6.3c0.8,0,1.1-0.5,1.1-1c0-0.6-0.4-0.8-1.3-1.1C1.2,3.9,0.5,3.7,0.5,2.8
		c0-1,0.8-1.6,1.7-1.6c0.4,0,0.7,0.1,1,0.2l0.2-0.2h0.2v1.5H3.3C3.1,1.9,2.7,1.5,2.1,1.5c-0.5,0-0.9,0.3-0.9,0.9
		c0,0.6,0.4,0.7,1.3,1c0.7,0.2,1.4,0.5,1.4,1.4c0,0.8-0.4,1.7-1.7,1.7c-0.4,0-0.9-0.1-1.2-0.2L0.6,6.6H0.4V4.9z"/>
	<path fill="#FFFFFF" d="M4.9,5.5V3.2H4.2V3l0.7-0.1v-1l0.6-0.3v1.3h1.1v0.3H5.5v2.2c0,0.4,0.2,0.6,0.5,0.6c0.2,0,0.4-0.2,0.6-0.4
		l0.2,0.1c-0.3,0.5-0.5,0.7-1,0.7C5.2,6.5,4.9,6.2,4.9,5.5z"/>
	<path fill="#FFFFFF" d="M7.1,5.7c0-0.3,0.1-0.6,0.5-0.8c0.6-0.3,1.5-0.5,1.6-0.5V4.1c0-0.8-0.2-1-0.7-1C8.2,3.1,8.1,3.1,8,3.3
		C8,3.4,8.1,3.5,8.1,3.6c0,0.2-0.1,0.4-0.4,0.4c-0.2,0-0.4-0.2-0.4-0.4c0-0.4,0.6-0.8,1.3-0.8c0.8,0,1.3,0.4,1.3,1.1v1.8
		c0,0.4,0.1,0.5,0.6,0.4l0,0.2C10.2,6.4,10,6.5,9.8,6.5c-0.4,0-0.5-0.2-0.5-0.6h0C8.9,6.2,8.5,6.5,8.1,6.5C7.4,6.5,7.1,6.1,7.1,5.7z
		 M9.2,5.6v-1C8.1,4.8,7.8,5,7.8,5.5c0,0.3,0.2,0.6,0.6,0.6C8.7,6.1,9,5.8,9.2,5.6z"/>
	<path fill="#FFFFFF" d="M11.2,5.5V3.2h-0.7V3l0.7-0.1v-1l0.6-0.3v1.3H13v0.3h-1.1v2.2c0,0.4,0.2,0.6,0.5,0.6c0.2,0,0.4-0.2,0.6-0.4
		l0.2,0.1c-0.3,0.5-0.5,0.7-1,0.7C11.5,6.5,11.2,6.2,11.2,5.5z"/>
	<path fill="#FFFFFF" d="M13.4,4.7c0-1.1,0.7-1.9,1.7-1.9c1,0,1.5,0.9,1.4,1.7h-2.4v0v0c0,0.9,0.4,1.5,1.2,1.5
		c0.4,0,0.8-0.3,1.1-0.7l0.2,0.1c-0.3,0.5-0.7,0.9-1.5,0.9C14,6.5,13.4,5.7,13.4,4.7z M14.1,4.3l1.7,0C15.9,3.6,15.6,3,15,3
		C14.6,3,14.2,3.4,14.1,4.3z"/>
	<path fill="#FFFFFF" d="M18.5,4.9h0.2c0.4,0.9,0.9,1.3,1.6,1.3c0.8,0,1.1-0.5,1.1-1c0-0.6-0.4-0.8-1.3-1.1
		c-0.7-0.2-1.5-0.5-1.5-1.4c0-1,0.8-1.6,1.7-1.6c0.4,0,0.7,0.1,1,0.2l0.2-0.2h0.2v1.5h-0.2c-0.2-0.7-0.7-1.2-1.3-1.2
		c-0.5,0-0.9,0.3-0.9,0.9c0,0.6,0.4,0.7,1.3,1C21.2,3.7,22,3.9,22,4.9c0,0.8-0.4,1.7-1.7,1.7c-0.4,0-0.9-0.1-1.2-0.2l-0.4,0.2h-0.2
		V4.9z"/>
	<path fill="#FFFFFF" d="M23,5.5V3.2h-0.7V3L23,2.9v-1l0.6-0.3v1.3h1.1v0.3h-1.1v2.2c0,0.4,0.2,0.6,0.5,0.6c0.2,0,0.4-0.2,0.6-0.4
		l0.2,0.1c-0.3,0.5-0.5,0.7-1,0.7C23.3,6.5,23,6.2,23,5.5z"/>
	<path fill="#FFFFFF" d="M25.2,6.2c0.5,0,0.6-0.1,0.6-0.3V3.5c0-0.2-0.1-0.4-0.6-0.4V2.9l1.2,0v0.6c0.3-0.3,0.6-0.6,1-0.6
		c0.4,0,0.6,0.3,0.6,0.5c0,0.2-0.2,0.4-0.4,0.4c-0.2,0-0.4-0.1-0.4-0.4c0,0,0-0.1,0-0.1c-0.3,0-0.6,0.2-0.8,0.5v2.2
		c0,0.2,0.1,0.3,0.7,0.3v0.2h-1.9V6.2z"/>
	<path fill="#FFFFFF" d="M28.3,4.7c0-1.1,0.7-1.9,1.7-1.9c1,0,1.5,0.9,1.4,1.7H29v0v0c0,0.9,0.4,1.5,1.2,1.5c0.4,0,0.8-0.3,1.1-0.7
		l0.2,0.1C31.2,6,30.8,6.5,30,6.5C28.9,6.5,28.3,5.7,28.3,4.7z M29,4.3l1.7,0C30.8,3.6,30.5,3,29.9,3C29.5,3,29.1,3.4,29,4.3z"/>
	<path fill="#FFFFFF" d="M32,4.7c0-1.1,0.7-1.9,1.7-1.9c1,0,1.5,0.9,1.4,1.7h-2.4v0v0c0,0.9,0.4,1.5,1.2,1.5c0.4,0,0.8-0.3,1.1-0.7
		l0.2,0.1c-0.3,0.5-0.7,0.9-1.5,0.9C32.6,6.5,32,5.7,32,4.7z M32.7,4.3l1.7,0C34.4,3.6,34.2,3,33.6,3C33.1,3,32.8,3.4,32.7,4.3z"/>
	<path fill="#FFFFFF" d="M36.1,5.5V3.2h-0.7V3l0.7-0.1v-1l0.6-0.3v1.3h1.1v0.3h-1.1v2.2c0,0.4,0.2,0.6,0.5,0.6
		c0.2,0,0.4-0.2,0.6-0.4L38,5.8c-0.3,0.5-0.5,0.7-1,0.7C36.4,6.5,36.1,6.2,36.1,5.5z"/>
	<path fill="#FFFFFF" d="M39.7,3.9c0-1.6,1.2-2.7,2.6-2.7c0.5,0,1,0.1,1.2,0.2l0.2-0.2H44v1.5h-0.2c-0.3-0.8-0.8-1.2-1.5-1.2
		c-0.9,0-1.7,0.8-1.7,2.4c0,1.6,0.9,2.4,1.8,2.4c0.5,0,0.8-0.1,1-0.3V4.6c0-0.2-0.2-0.3-0.8-0.3V4h2.1v0.2c-0.5,0-0.5,0.1-0.5,0.3
		v1.6c-0.4,0.2-1.2,0.4-1.7,0.4C40.9,6.5,39.7,5.6,39.7,3.9z"/>
	<path fill="#FFFFFF" d="M45,6.2c0.4,0,0.6-0.1,0.6-0.3V1.7c0-0.2-0.1-0.4-0.6-0.4V1.1l1.2,0v4.9c0,0.2,0.1,0.3,0.6,0.3v0.2H45V6.2z
		"/>
	<path fill="#FFFFFF" d="M47.2,4.7c0-1.1,0.7-1.9,1.7-1.9c1.1,0,1.7,0.7,1.7,1.8c0,1.1-0.7,1.9-1.7,1.9C47.8,6.5,47.2,5.7,47.2,4.7z
		 M49.9,4.6c0-1.1-0.4-1.6-1-1.6c-0.6,0-1,0.5-1,1.6c0,1.1,0.4,1.6,1,1.6C49.6,6.2,49.9,5.7,49.9,4.6z"/>
	<path fill="#FFFFFF" d="M51.5,5.8V1.7c0-0.2-0.1-0.4-0.6-0.4V1.1l1.2,0v2.2c0.3-0.3,0.6-0.5,1.1-0.5c0.9,0,1.5,0.7,1.5,1.7
		c0,1-0.6,1.9-1.7,1.9c-0.4,0-0.8-0.1-1.1-0.4l-0.3,0.4h-0.2L51.5,5.8z M54,4.6c0-0.8-0.4-1.4-1-1.4c-0.4,0-0.6,0.2-0.9,0.3v2.1
		c0.2,0.5,0.5,0.7,0.9,0.7C53.7,6.2,54,5.6,54,4.6z"/>
	<path fill="#FFFFFF" d="M55.4,5.7c0-0.3,0.1-0.6,0.5-0.8c0.6-0.3,1.5-0.5,1.6-0.5V4.1c0-0.8-0.2-1-0.7-1c-0.2,0-0.4,0.1-0.5,0.2
		c0.1,0.1,0.1,0.3,0.1,0.4c0,0.2-0.1,0.4-0.4,0.4c-0.2,0-0.4-0.2-0.4-0.4c0-0.4,0.6-0.8,1.3-0.8c0.8,0,1.3,0.4,1.3,1.1v1.8
		c0,0.4,0.1,0.5,0.6,0.4l0,0.2c-0.3,0.1-0.5,0.1-0.7,0.1c-0.4,0-0.5-0.2-0.5-0.6h0c-0.3,0.3-0.7,0.6-1.2,0.6
		C55.6,6.5,55.4,6.1,55.4,5.7z M57.5,5.6v-1c-1.1,0.2-1.4,0.4-1.4,0.9c0,0.3,0.2,0.6,0.6,0.6C57,6.1,57.3,5.8,57.5,5.6z"/>
	<path fill="#FFFFFF" d="M58.9,6.2c0.4,0,0.6-0.1,0.6-0.3V1.7c0-0.2-0.1-0.4-0.6-0.4V1.1l1.2,0v4.9c0,0.2,0.1,0.3,0.6,0.3v0.2h-1.8
		V6.2z"/>
	<path fill="#FFFFFF" d="M62.5,6.2c0.7-0.1,0.8-0.3,0.8-1V2c0-0.3-0.2-0.4-0.8-0.5V1.3h1.8l1.5,4.1h0l1.4-4.1H69v0.2
		c-0.7,0-0.8,0.1-0.8,0.3v3.9c0,0.2,0.2,0.3,0.8,0.3v0.2h-2.2V6.2c0.6,0,0.7-0.1,0.7-0.3v-4h0l-1.7,4.6h-0.3l-1.7-4.6h0v3.4
		c0,0.7,0.1,0.9,0.8,1v0.2h-1.9V6.2z"/>
	<path fill="#FFFFFF" d="M69.6,5.7c0-0.3,0.1-0.6,0.5-0.8c0.6-0.3,1.5-0.5,1.6-0.5V4.1c0-0.8-0.2-1-0.7-1c-0.2,0-0.4,0.1-0.5,0.2
		c0.1,0.1,0.1,0.3,0.1,0.4c0,0.2-0.1,0.4-0.4,0.4c-0.2,0-0.4-0.2-0.4-0.4c0-0.4,0.6-0.8,1.3-0.8c0.8,0,1.3,0.4,1.3,1.1v1.8
		c0,0.4,0.1,0.5,0.6,0.4l0,0.2c-0.3,0.1-0.5,0.1-0.7,0.1c-0.4,0-0.5-0.2-0.5-0.6h0c-0.3,0.3-0.7,0.6-1.2,0.6
		C69.8,6.5,69.6,6.1,69.6,5.7z M71.7,5.6v-1c-1.1,0.2-1.4,0.4-1.4,0.9c0,0.3,0.2,0.6,0.6,0.6C71.2,6.1,71.5,5.8,71.7,5.6z"/>
	<path fill="#FFFFFF" d="M73.2,6.2c0.4,0,0.6-0.1,0.6-0.3V3.5c0-0.2-0.1-0.4-0.6-0.4V2.9l1.2,0v0.6c0.3-0.3,0.6-0.6,1-0.6
		c0.4,0,0.6,0.3,0.6,0.5c0,0.2-0.2,0.4-0.4,0.4c-0.2,0-0.4-0.1-0.4-0.4c0,0,0-0.1,0-0.1c-0.3,0-0.6,0.2-0.8,0.5v2.2
		c0,0.2,0.1,0.3,0.7,0.3v0.2h-1.9V6.2z"/>
	<path fill="#FFFFFF" d="M77.4,5.9c0,0.2,0.1,0.3,0.4,0.3v0.2h-1.6V6.2c0.5,0,0.6-0.1,0.6-0.3V1.7c0-0.2-0.1-0.4-0.6-0.4V1.1l1.2,0
		v3.7l1.1-1.2c0.2-0.2,0.2-0.4-0.3-0.4V2.9h1.6v0.2c-0.4,0.1-0.6,0.2-0.9,0.5l-0.7,0.7l1.2,1.6c0.2,0.2,0.3,0.3,0.6,0.4v0.2h-1.7
		V6.2c0.4,0,0.5-0.1,0.3-0.4l-0.8-1.2l-0.5,0.4V5.9z"/>
	<path fill="#FFFFFF" d="M80.2,4.7c0-1.1,0.7-1.9,1.7-1.9c1,0,1.5,0.9,1.4,1.7h-2.4v0v0c0,0.9,0.4,1.5,1.2,1.5
		c0.4,0,0.8-0.3,1.1-0.7l0.2,0.1c-0.3,0.5-0.7,0.9-1.5,0.9C80.8,6.5,80.2,5.7,80.2,4.7z M80.9,4.3l1.7,0C82.7,3.6,82.4,3,81.8,3
		C81.4,3,81,3.4,80.9,4.3z"/>
	<path fill="#FFFFFF" d="M84.3,5.5V3.2h-0.7V3l0.7-0.1v-1L85,1.6v1.3h1.1v0.3H85v2.2c0,0.4,0.2,0.6,0.5,0.6c0.2,0,0.4-0.2,0.6-0.4
		l0.2,0.1c-0.3,0.5-0.5,0.7-1,0.7C84.6,6.5,84.3,6.2,84.3,5.5z"/>
	<path fill="#FFFFFF" d="M86.6,5.3h0.2c0.3,0.6,0.7,0.9,1.2,0.9c0.4,0,0.6-0.3,0.6-0.6c0-0.4-0.2-0.5-0.9-0.7
		c-0.8-0.2-1.1-0.5-1.1-1c0-0.7,0.5-1.1,1.2-1.1c0.2,0,0.6,0.1,0.7,0.2l0.1-0.2H89v1.1h-0.2C88.5,3.4,88.2,3,87.8,3
		c-0.4,0-0.6,0.2-0.6,0.6c0,0.3,0.3,0.5,0.9,0.7c0.7,0.2,1.1,0.5,1.1,1c0,0.7-0.4,1.2-1.2,1.2c-0.3,0-0.7-0.1-0.9-0.2l-0.2,0.2h-0.2
		V5.3z"/>
	<path fill="#FFFFFF" d="M89.4,7.4c0.6-0.3,0.9-0.6,0.9-0.9l0,0c-0.1,0-0.1,0.1-0.2,0.1c-0.2,0-0.4-0.2-0.4-0.4
		c0-0.3,0.2-0.5,0.5-0.5c0.3,0,0.5,0.2,0.5,0.6c0,0.6-0.4,1-1.2,1.4L89.4,7.4z"/>
	<path fill="#FFFFFF" d="M92.6,6.2c0.7,0,0.8-0.1,0.8-0.3V1.9c0-0.2-0.2-0.3-0.8-0.3V1.3H95v0.2c-0.7,0-0.8,0.1-0.8,0.3v4.2H95
		c1,0,1.3-0.4,1.6-1.4l0.2,0l-0.1,1.7h-4.1V6.2z"/>
	<path fill="#FFFFFF" d="M97.3,6.2c0.7,0,0.8-0.1,0.8-0.3V1.9c0-0.2-0.2-0.3-0.8-0.3V1.3h2.3v0.2c-0.7,0-0.8,0.1-0.8,0.3v4.2h0.8
		c1,0,1.3-0.4,1.6-1.4l0.2,0l-0.1,1.7h-4.1V6.2z"/>
	<path fill="#FFFFFF" d="M102,3.9c0-1.6,1.1-2.7,2.6-2.7c0.5,0,1,0.2,1.3,0.4l0.2-0.3h0.2v1.7h-0.2c-0.3-0.9-0.8-1.4-1.6-1.4
		c-0.9,0-1.7,0.8-1.7,2.4c0,1.5,1,2.2,1.8,2.2c0.9,0,1.4-0.5,1.7-1.2l0.3,0.1c-0.3,0.7-1,1.5-2.1,1.5C103,6.5,102,5.5,102,3.9z"/>
	<path fill="#FFFFFF" d="M108.4,5.7c0-0.3,0.1-0.6,0.5-0.8c0.6-0.3,1.5-0.5,1.6-0.5V4.1c0-0.8-0.2-1-0.7-1c-0.2,0-0.4,0.1-0.5,0.2
		c0.1,0.1,0.1,0.3,0.1,0.4c0,0.2-0.1,0.4-0.4,0.4c-0.2,0-0.4-0.2-0.4-0.4c0-0.4,0.6-0.8,1.3-0.8c0.8,0,1.3,0.4,1.3,1.1v1.8
		c0,0.4,0.1,0.5,0.6,0.4l0,0.2c-0.3,0.1-0.5,0.1-0.7,0.1c-0.4,0-0.5-0.2-0.5-0.6h0c-0.3,0.3-0.7,0.6-1.2,0.6
		C108.7,6.5,108.4,6.1,108.4,5.7z M110.5,5.6v-1c-1.1,0.2-1.4,0.4-1.4,0.9c0,0.3,0.2,0.6,0.6,0.6C110,6.1,110.3,5.8,110.5,5.6z"/>
	<path fill="#FFFFFF" d="M112,6.2c0.4,0,0.6-0.1,0.6-0.3V3.5c0-0.2-0.1-0.4-0.6-0.4V2.9l1.2,0v0.5c0.4-0.3,0.9-0.6,1.4-0.6
		c0.5,0,0.9,0.4,0.9,1.1v2c0,0.2,0.1,0.3,0.6,0.3v0.2h-1.7V6.2c0.4,0,0.5-0.1,0.5-0.3V4.2c0-0.7-0.3-0.9-0.7-0.9
		c-0.3,0-0.7,0.2-0.9,0.3v2.3c0,0.2,0.1,0.3,0.5,0.3v0.2H112V6.2z"/>
	<path fill="#FFFFFF" d="M116.5,4.7c0-1.1,0.7-1.9,1.7-1.9c0.4,0,0.6,0.1,0.8,0.2V1.7c0-0.2-0.1-0.4-0.6-0.4V1.1l1.2,0v4.9
		c0,0.2,0.1,0.3,0.6,0.3v0.2l-1.2,0V6c-0.3,0.3-0.6,0.4-1.1,0.4C117,6.5,116.5,5.7,116.5,4.7z M119,5.8V3.5
		c-0.2-0.3-0.4-0.5-0.8-0.5c-0.5,0-1,0.6-1,1.6c0,0.8,0.4,1.4,1.1,1.4C118.6,6.1,118.8,6,119,5.8z"/>
	<path fill="#FFFFFF" d="M122,4.9h0.2c0.4,0.9,0.9,1.3,1.6,1.3c0.8,0,1.1-0.5,1.1-1c0-0.6-0.4-0.8-1.3-1.1c-0.7-0.2-1.5-0.5-1.5-1.4
		c0-1,0.8-1.6,1.7-1.6c0.4,0,0.7,0.1,1,0.2l0.2-0.2h0.2v1.5H125c-0.2-0.7-0.7-1.2-1.3-1.2c-0.5,0-0.9,0.3-0.9,0.9
		c0,0.6,0.4,0.7,1.3,1c0.7,0.2,1.4,0.5,1.4,1.4c0,0.8-0.4,1.7-1.7,1.7c-0.4,0-0.9-0.1-1.2-0.2l-0.4,0.2H122V4.9z"/>
	<path fill="#FFFFFF" d="M126.5,5.5V3.2h-0.7V3l0.7-0.1v-1l0.6-0.3v1.3h1.1v0.3h-1.1v2.2c0,0.4,0.2,0.6,0.5,0.6
		c0.2,0,0.4-0.2,0.6-0.4l0.2,0.1c-0.3,0.5-0.5,0.7-1,0.7C126.8,6.5,126.5,6.2,126.5,5.5z"/>
	<path fill="#FFFFFF" d="M128.8,5.7c0-0.3,0.1-0.6,0.5-0.8c0.6-0.3,1.5-0.5,1.6-0.5V4.1c0-0.8-0.2-1-0.7-1c-0.2,0-0.4,0.1-0.5,0.2
		c0.1,0.1,0.1,0.3,0.1,0.4c0,0.2-0.1,0.4-0.4,0.4c-0.2,0-0.4-0.2-0.4-0.4c0-0.4,0.6-0.8,1.3-0.8c0.8,0,1.3,0.4,1.3,1.1v1.8
		c0,0.4,0.1,0.5,0.6,0.4l0,0.2c-0.3,0.1-0.5,0.1-0.7,0.1c-0.4,0-0.5-0.2-0.5-0.6h0c-0.3,0.3-0.7,0.6-1.2,0.6
		C129,6.5,128.8,6.1,128.8,5.7z M130.9,5.6v-1c-1.1,0.2-1.4,0.4-1.4,0.9c0,0.3,0.2,0.6,0.6,0.6C130.4,6.1,130.7,5.8,130.9,5.6z"/>
	<path fill="#FFFFFF" d="M132.9,5.5V3.2h-0.7V3l0.7-0.1v-1l0.6-0.3v1.3h1.1v0.3h-1.1v2.2c0,0.4,0.2,0.6,0.5,0.6
		c0.2,0,0.4-0.2,0.6-0.4l0.2,0.1c-0.3,0.5-0.5,0.7-1,0.7C133.2,6.5,132.9,6.2,132.9,5.5z"/>
	<path fill="#FFFFFF" d="M135.1,4.7c0-1.1,0.7-1.9,1.7-1.9c1,0,1.5,0.9,1.4,1.7h-2.4v0v0c0,0.9,0.4,1.5,1.2,1.5
		c0.4,0,0.8-0.3,1.1-0.7l0.2,0.1c-0.3,0.5-0.7,0.9-1.5,0.9C135.7,6.5,135.1,5.7,135.1,4.7z M135.8,4.3l1.7,0
		c0.1-0.7-0.2-1.2-0.8-1.2C136.2,3,135.9,3.4,135.8,4.3z"/>
	<path fill="#FFFFFF" d="M140.1,4.9h0.2c0.4,0.9,0.9,1.3,1.6,1.3c0.8,0,1.1-0.5,1.1-1c0-0.6-0.4-0.8-1.3-1.1
		c-0.7-0.2-1.5-0.5-1.5-1.4c0-1,0.8-1.6,1.7-1.6c0.4,0,0.7,0.1,1,0.2l0.2-0.2h0.2v1.5h-0.2c-0.2-0.7-0.7-1.2-1.3-1.2
		c-0.5,0-0.9,0.3-0.9,0.9c0,0.6,0.4,0.7,1.3,1c0.7,0.2,1.4,0.5,1.4,1.4c0,0.8-0.4,1.7-1.7,1.7c-0.4,0-0.9-0.1-1.2-0.2l-0.4,0.2h-0.2
		V4.9z"/>
	<path fill="#FFFFFF" d="M144.7,5.5V3.2H144V3l0.7-0.1v-1l0.6-0.3v1.3h1.1v0.3h-1.1v2.2c0,0.4,0.2,0.6,0.5,0.6
		c0.2,0,0.4-0.2,0.6-0.4l0.2,0.1c-0.3,0.5-0.5,0.7-1,0.7C145,6.5,144.7,6.2,144.7,5.5z"/>
	<path fill="#FFFFFF" d="M146.9,6.2c0.5,0,0.6-0.1,0.6-0.3V3.5c0-0.2-0.1-0.4-0.6-0.4V2.9l1.2,0v0.6c0.3-0.3,0.6-0.6,1-0.6
		c0.4,0,0.6,0.3,0.6,0.5c0,0.2-0.2,0.4-0.4,0.4c-0.2,0-0.4-0.1-0.4-0.4c0,0,0-0.1,0-0.1c-0.3,0-0.6,0.2-0.8,0.5v2.2
		c0,0.2,0.1,0.3,0.7,0.3v0.2h-1.9V6.2z"/>
	<path fill="#FFFFFF" d="M150,4.7c0-1.1,0.7-1.9,1.7-1.9c1,0,1.5,0.9,1.4,1.7h-2.4v0v0c0,0.9,0.4,1.5,1.2,1.5c0.4,0,0.8-0.3,1.1-0.7
		l0.2,0.1c-0.3,0.5-0.7,0.9-1.5,0.9C150.5,6.5,150,5.7,150,4.7z M150.7,4.3l1.7,0c0.1-0.7-0.2-1.2-0.8-1.2
		C151.1,3,150.7,3.4,150.7,4.3z"/>
	<path fill="#FFFFFF" d="M153.6,4.7c0-1.1,0.7-1.9,1.7-1.9c1,0,1.5,0.9,1.4,1.7h-2.4v0v0c0,0.9,0.4,1.5,1.2,1.5
		c0.4,0,0.8-0.3,1.1-0.7l0.2,0.1c-0.3,0.5-0.7,0.9-1.5,0.9C154.2,6.5,153.6,5.7,153.6,4.7z M154.3,4.3l1.7,0
		c0.1-0.7-0.2-1.2-0.8-1.2C154.8,3,154.4,3.4,154.3,4.3z"/>
	<path fill="#FFFFFF" d="M157.7,5.5V3.2h-0.7V3l0.7-0.1v-1l0.6-0.3v1.3h1.1v0.3h-1.1v2.2c0,0.4,0.2,0.6,0.5,0.6
		c0.2,0,0.4-0.2,0.6-0.4l0.2,0.1c-0.3,0.5-0.5,0.7-1,0.7C158,6.5,157.7,6.2,157.7,5.5z"/>
	<path fill="#FFFFFF" d="M161.3,3.9c0-1.6,1.2-2.7,2.6-2.7c0.5,0,1,0.1,1.2,0.2l0.2-0.2h0.2v1.5h-0.2c-0.3-0.8-0.8-1.2-1.5-1.2
		c-0.9,0-1.7,0.8-1.7,2.4c0,1.6,0.9,2.4,1.8,2.4c0.5,0,0.8-0.1,1-0.3V4.6c0-0.2-0.2-0.3-0.8-0.3V4h2.1v0.2c-0.5,0-0.5,0.1-0.5,0.3
		v1.6c-0.4,0.2-1.2,0.4-1.7,0.4C162.6,6.5,161.3,5.6,161.3,3.9z"/>
	<path fill="#FFFFFF" d="M166.6,6.2c0.4,0,0.6-0.1,0.6-0.3V1.7c0-0.2-0.1-0.4-0.6-0.4V1.1l1.2,0v4.9c0,0.2,0.1,0.3,0.6,0.3v0.2h-1.8
		V6.2z"/>
	<path fill="#FFFFFF" d="M168.8,4.7c0-1.1,0.7-1.9,1.7-1.9c1.1,0,1.7,0.7,1.7,1.8c0,1.1-0.7,1.9-1.7,1.9
		C169.5,6.5,168.8,5.7,168.8,4.7z M171.6,4.6c0-1.1-0.4-1.6-1-1.6c-0.6,0-1,0.5-1,1.6c0,1.1,0.4,1.6,1,1.6
		C171.2,6.2,171.6,5.7,171.6,4.6z"/>
	<path fill="#FFFFFF" d="M173.2,5.8V1.7c0-0.2-0.1-0.4-0.6-0.4V1.1l1.2,0v2.2c0.3-0.3,0.6-0.5,1.1-0.5c0.9,0,1.5,0.7,1.5,1.7
		c0,1-0.6,1.9-1.7,1.9c-0.4,0-0.8-0.1-1.1-0.4l-0.3,0.4h-0.2L173.2,5.8z M175.7,4.6c0-0.8-0.4-1.4-1-1.4c-0.4,0-0.6,0.2-0.9,0.3v2.1
		c0.2,0.5,0.5,0.7,0.9,0.7C175.4,6.2,175.7,5.6,175.7,4.6z"/>
	<path fill="#FFFFFF" d="M177,5.7c0-0.3,0.1-0.6,0.5-0.8c0.6-0.3,1.5-0.5,1.6-0.5V4.1c0-0.8-0.2-1-0.7-1c-0.2,0-0.4,0.1-0.5,0.2
		c0.1,0.1,0.1,0.3,0.1,0.4c0,0.2-0.1,0.4-0.4,0.4c-0.2,0-0.4-0.2-0.4-0.4c0-0.4,0.6-0.8,1.3-0.8c0.8,0,1.3,0.4,1.3,1.1v1.8
		c0,0.4,0.1,0.5,0.6,0.4l0,0.2c-0.3,0.1-0.5,0.1-0.7,0.1c-0.4,0-0.5-0.2-0.5-0.6h0c-0.3,0.3-0.7,0.6-1.2,0.6
		C177.3,6.5,177,6.1,177,5.7z M179.1,5.6v-1c-1.1,0.2-1.4,0.4-1.4,0.9c0,0.3,0.2,0.6,0.6,0.6C178.6,6.1,178.9,5.8,179.1,5.6z"/>
	<path fill="#FFFFFF" d="M180.6,6.2c0.4,0,0.6-0.1,0.6-0.3V1.7c0-0.2-0.1-0.4-0.6-0.4V1.1l1.2,0v4.9c0,0.2,0.1,0.3,0.6,0.3v0.2h-1.8
		V6.2z"/>
	<path fill="#FFFFFF" d="M187,4.5h-1.7L185,5.3c-0.3,0.7-0.2,0.8,0.4,0.9v0.2h-1.7V6.2c0.5-0.1,0.7-0.4,1-1.1l1.6-3.9h0.3l1.6,4.3
		c0.1,0.4,0.3,0.6,0.9,0.6v0.2h-2.3V6.2c0.7,0,0.8-0.2,0.7-0.6L187,4.5z M186.9,4.2l-0.7-2.1h0l-0.8,2.1H186.9z"/>
	<path fill="#FFFFFF" d="M189.2,4.7c0-1.1,0.7-1.9,1.7-1.9c0.4,0,0.6,0.1,0.8,0.2V1.7c0-0.2-0.1-0.4-0.6-0.4V1.1l1.2,0v4.9
		c0,0.2,0.1,0.3,0.6,0.3v0.2l-1.2,0V6c-0.3,0.3-0.6,0.4-1.1,0.4C189.8,6.5,189.2,5.7,189.2,4.7z M191.8,5.8V3.5
		C191.6,3.2,191.4,3,191,3c-0.5,0-1,0.6-1,1.6c0,0.8,0.4,1.4,1.1,1.4C191.3,6.1,191.6,6,191.8,5.8z"/>
	<path fill="#FFFFFF" d="M193.6,3.6c-0.1-0.3-0.2-0.4-0.6-0.5V2.9h1.7v0.2c-0.4,0-0.5,0.1-0.5,0.2c0,0,0,0.1,0,0.1l0.9,2.2h0
		l0.7-1.9c0.1-0.2,0.1-0.3,0.1-0.4c0-0.2-0.1-0.3-0.5-0.3V2.9h1.4v0.2c-0.2,0-0.4,0.2-0.6,0.6l-1.2,2.8h-0.4L193.6,3.6z"/>
	<path fill="#FFFFFF" d="M197,6.2c0.4,0,0.6-0.1,0.6-0.3V3.5c0-0.2-0.1-0.4-0.6-0.4V2.9l1.2,0v3.1c0,0.2,0.1,0.3,0.6,0.3v0.2H197
		V6.2z M197.5,1.5c0-0.3,0.2-0.5,0.4-0.5c0.3,0,0.4,0.2,0.4,0.5S198.2,2,197.9,2C197.7,2,197.5,1.8,197.5,1.5z"/>
	<path fill="#FFFFFF" d="M199.3,5.3h0.2c0.3,0.6,0.7,0.9,1.2,0.9c0.4,0,0.6-0.3,0.6-0.6c0-0.4-0.2-0.5-0.9-0.7
		c-0.8-0.2-1.1-0.5-1.1-1c0-0.7,0.5-1.1,1.2-1.1c0.2,0,0.6,0.1,0.7,0.2l0.1-0.2h0.2v1.1h-0.2c-0.2-0.5-0.5-0.8-0.9-0.8
		c-0.4,0-0.6,0.2-0.6,0.6c0,0.3,0.3,0.5,0.9,0.7c0.7,0.2,1.1,0.5,1.1,1c0,0.7-0.4,1.2-1.2,1.2c-0.3,0-0.7-0.1-0.9-0.2l-0.2,0.2h-0.2
		V5.3z"/>
	<path fill="#FFFFFF" d="M202.4,4.7c0-1.1,0.7-1.9,1.7-1.9c1.1,0,1.7,0.7,1.7,1.8c0,1.1-0.7,1.9-1.7,1.9
		C203.1,6.5,202.4,5.7,202.4,4.7z M205.2,4.6c0-1.1-0.4-1.6-1-1.6c-0.6,0-1,0.5-1,1.6c0,1.1,0.4,1.6,1,1.6
		C204.8,6.2,205.2,5.7,205.2,4.6z"/>
	<path fill="#FFFFFF" d="M206.4,6.2c0.4,0,0.6-0.1,0.6-0.3V3.5c0-0.2-0.1-0.4-0.6-0.4V2.9l1.2,0v0.6c0.3-0.3,0.6-0.6,1-0.6
		c0.4,0,0.6,0.3,0.6,0.5c0,0.2-0.2,0.4-0.4,0.4c-0.2,0-0.4-0.1-0.4-0.4c0,0,0-0.1,0-0.1c-0.3,0-0.6,0.2-0.8,0.5v2.2
		c0,0.2,0.1,0.3,0.7,0.3v0.2h-1.9V6.2z"/>
	<path fill="#FFFFFF" d="M209.6,5.3h0.2c0.3,0.6,0.7,0.9,1.2,0.9c0.4,0,0.6-0.3,0.6-0.6c0-0.4-0.2-0.5-0.9-0.7
		c-0.8-0.2-1.1-0.5-1.1-1c0-0.7,0.5-1.1,1.2-1.1c0.2,0,0.6,0.1,0.7,0.2l0.1-0.2h0.2v1.1h-0.2c-0.2-0.5-0.5-0.8-0.9-0.8
		c-0.4,0-0.6,0.2-0.6,0.6c0,0.3,0.3,0.5,0.9,0.7c0.7,0.2,1.1,0.5,1.1,1c0,0.7-0.4,1.2-1.2,1.2c-0.3,0-0.7-0.1-0.9-0.2l-0.2,0.2h-0.2
		V5.3z"/>
	<path fill="#FFFFFF" d="M214.1,5.7c0-0.3,0.1-0.6,0.5-0.8c0.6-0.3,1.5-0.5,1.6-0.5V4.1c0-0.8-0.2-1-0.7-1c-0.2,0-0.4,0.1-0.5,0.2
		c0.1,0.1,0.1,0.3,0.1,0.4c0,0.2-0.1,0.4-0.4,0.4c-0.2,0-0.4-0.2-0.4-0.4c0-0.4,0.6-0.8,1.3-0.8c0.8,0,1.3,0.4,1.3,1.1v1.8
		c0,0.4,0.1,0.5,0.6,0.4l0,0.2c-0.3,0.1-0.5,0.1-0.7,0.1c-0.4,0-0.5-0.2-0.5-0.6h0c-0.3,0.3-0.7,0.6-1.2,0.6
		C214.4,6.5,214.1,6.1,214.1,5.7z M216.2,5.6v-1c-1.1,0.2-1.4,0.4-1.4,0.9c0,0.3,0.2,0.6,0.6,0.6C215.7,6.1,216,5.8,216.2,5.6z"/>
	<path fill="#FFFFFF" d="M217.7,6.2c0.5,0,0.6-0.1,0.6-0.3V3.5c0-0.2-0.1-0.4-0.6-0.4V2.9l1.2,0v0.6c0.3-0.3,0.6-0.6,1-0.6
		c0.4,0,0.6,0.3,0.6,0.5c0,0.2-0.2,0.4-0.4,0.4c-0.2,0-0.4-0.1-0.4-0.4c0,0,0-0.1,0-0.1c-0.3,0-0.6,0.2-0.8,0.5v2.2
		c0,0.2,0.1,0.3,0.7,0.3v0.2h-1.9V6.2z"/>
	<path fill="#FFFFFF" d="M220.8,4.7c0-1.1,0.7-1.9,1.7-1.9c1,0,1.5,0.9,1.4,1.7h-2.4v0v0c0,0.9,0.4,1.5,1.2,1.5
		c0.4,0,0.8-0.3,1.1-0.7l0.2,0.1c-0.3,0.5-0.7,0.9-1.5,0.9C221.4,6.5,220.8,5.7,220.8,4.7z M221.5,4.3l1.7,0
		c0.1-0.7-0.2-1.2-0.8-1.2C222,3,221.6,3.4,221.5,4.3z"/>
	<path fill="#FFFFFF" d="M225.9,5.7c0-0.3,0.1-0.6,0.5-0.8c0.6-0.3,1.5-0.5,1.6-0.5V4.1c0-0.8-0.2-1-0.7-1c-0.2,0-0.4,0.1-0.5,0.2
		c0.1,0.1,0.1,0.3,0.1,0.4c0,0.2-0.1,0.4-0.4,0.4c-0.2,0-0.4-0.2-0.4-0.4c0-0.4,0.6-0.8,1.3-0.8c0.8,0,1.3,0.4,1.3,1.1v1.8
		c0,0.4,0.1,0.5,0.6,0.4l0,0.2c-0.3,0.1-0.5,0.1-0.7,0.1c-0.4,0-0.5-0.2-0.5-0.6h0c-0.3,0.3-0.7,0.6-1.2,0.6
		C226.2,6.5,225.9,6.1,225.9,5.7z M228,5.6v-1c-1.1,0.2-1.4,0.4-1.4,0.9c0,0.3,0.2,0.6,0.6,0.6C227.5,6.1,227.8,5.8,228,5.6z"/>
	<path fill="#FFFFFF" d="M232.5,1.5l0.1-0.1c0.3-0.3,0.7-0.4,1.1-0.4c0.6,0,1.1,0.3,1.1,0.7c0,0.3-0.2,0.4-0.4,0.4
		c-0.3,0-0.5-0.2-0.5-0.5c0-0.1,0-0.2,0.1-0.3c-0.1-0.1-0.2-0.1-0.4-0.1c-0.2,0-0.4,0.1-0.6,0.2c-0.2,0.2-0.3,0.5-0.3,1.1v0.4h1
		l1.2,0v3.1c0,0.2,0.1,0.3,0.6,0.3v0.2h-1.7V6.2c0.4,0,0.5-0.1,0.5-0.3V3.2h-1.5v2.7c0,0.2,0.1,0.3,0.5,0.3v0.2h-1.6V6.2
		c0.4,0,0.5-0.1,0.5-0.3V3.2h-1.5v2.7c0,0.2,0.1,0.3,0.5,0.3v0.2h-1.7V6.2c0.4,0,0.6-0.1,0.6-0.3V3.2h-0.7V3l0.7-0.1v0
		c0-0.7,0.1-1.1,0.4-1.4c0.3-0.3,0.7-0.4,1.1-0.4C232.1,1,232.4,1.3,232.5,1.5z M232.2,2.8c0-0.3,0-0.6,0.1-0.8c0,0-0.1,0-0.1,0
		c-0.2,0-0.4-0.1-0.4-0.5c0-0.1,0-0.2,0-0.2c-0.1-0.1-0.2-0.1-0.3-0.1c-0.2,0-0.4,0.1-0.5,0.2c-0.2,0.2-0.3,0.5-0.3,1.1v0.4
		L232.2,2.8L232.2,2.8z"/>
	<path fill="#FFFFFF" d="M235.9,6.2c0.4,0,0.6-0.1,0.6-0.3V1.7c0-0.2-0.1-0.4-0.6-0.4V1.1l1.2,0v4.9c0,0.2,0.1,0.3,0.6,0.3v0.2h-1.8
		V6.2z"/>
	<path fill="#FFFFFF" d="M238.1,6.2c0.5,0,0.6-0.1,0.6-0.3V3.5c0-0.2-0.1-0.4-0.6-0.4V2.9l1.2,0v3.1c0,0.2,0.1,0.3,0.6,0.3v0.2h-1.8
		V6.2z M238.6,1.5c0-0.3,0.2-0.5,0.4-0.5c0.3,0,0.4,0.2,0.4,0.5S239.3,2,239,2C238.8,2,238.6,1.8,238.6,1.5z"/>
	<path fill="#FFFFFF" d="M240.4,5.7c0-0.3,0.1-0.6,0.5-0.8c0.6-0.3,1.5-0.5,1.6-0.5V4.1c0-0.8-0.2-1-0.7-1c-0.2,0-0.4,0.1-0.5,0.2
		c0.1,0.1,0.1,0.3,0.1,0.4c0,0.2-0.1,0.4-0.4,0.4c-0.2,0-0.4-0.2-0.4-0.4c0-0.4,0.6-0.8,1.3-0.8c0.8,0,1.3,0.4,1.3,1.1v1.8
		c0,0.4,0.1,0.5,0.6,0.4l0,0.2c-0.3,0.1-0.5,0.1-0.7,0.1c-0.4,0-0.5-0.2-0.5-0.6h0c-0.3,0.3-0.7,0.6-1.2,0.6
		C240.7,6.5,240.4,6.1,240.4,5.7z M242.5,5.6v-1c-1.1,0.2-1.4,0.4-1.4,0.9c0,0.3,0.2,0.6,0.6,0.6C242,6.1,242.3,5.8,242.5,5.6z"/>
	<path fill="#FFFFFF" d="M244.5,5.5V3.2h-0.7V3l0.7-0.1v-1l0.6-0.3v1.3h1.1v0.3h-1.1v2.2c0,0.4,0.2,0.6,0.5,0.6
		c0.2,0,0.4-0.2,0.6-0.4l0.2,0.1c-0.3,0.5-0.5,0.7-1,0.7C244.8,6.5,244.5,6.2,244.5,5.5z"/>
	<path fill="#FFFFFF" d="M246.7,4.7c0-1.1,0.7-1.9,1.7-1.9c1,0,1.5,0.9,1.4,1.7h-2.4v0v0c0,0.9,0.4,1.5,1.2,1.5
		c0.4,0,0.8-0.3,1.1-0.7l0.2,0.1c-0.3,0.5-0.7,0.9-1.5,0.9C247.3,6.5,246.7,5.7,246.7,4.7z M247.4,4.3l1.7,0
		c0.1-0.7-0.2-1.2-0.8-1.2C247.8,3,247.5,3.4,247.4,4.3z"/>
	<path fill="#FFFFFF" d="M250.4,4.7c0-1.1,0.7-1.9,1.7-1.9c0.4,0,0.6,0.1,0.8,0.2V1.7c0-0.2-0.1-0.4-0.6-0.4V1.1l1.2,0v4.9
		c0,0.2,0.1,0.3,0.6,0.3v0.2l-1.2,0V6c-0.3,0.3-0.6,0.4-1.1,0.4C250.9,6.5,250.4,5.7,250.4,4.7z M252.9,5.8V3.5
		c-0.2-0.3-0.4-0.5-0.8-0.5c-0.5,0-1,0.6-1,1.6c0,0.8,0.4,1.4,1.1,1.4C252.5,6.1,252.7,6,252.9,5.8z"/>
	<path fill="#FFFFFF" d="M254.6,6.1c0-0.3,0.2-0.5,0.5-0.5c0.3,0,0.5,0.2,0.5,0.5s-0.2,0.5-0.5,0.5C254.8,6.5,254.6,6.3,254.6,6.1z"
		/>
	<path fill="#FFFFFF" d="M0.2,13.6c0-1.6,1.2-2.8,2.8-2.8c1.6,0,2.8,1.2,2.8,2.8c0,1.6-1.2,2.8-2.8,2.8C1.5,16.4,0.2,15.2,0.2,13.6z
		 M5.6,13.6c0-1.4-1.1-2.6-2.5-2.6c-1.4,0-2.5,1.1-2.5,2.6c0,1.4,1.1,2.6,2.5,2.6C4.5,16.2,5.6,15.1,5.6,13.6z M1.7,13.6
		c0-0.9,0.7-1.5,1.4-1.5c0.3,0,0.5,0.1,0.7,0.3l0.2-0.3h0.2v1H3.9c-0.2-0.5-0.4-0.7-0.8-0.7c-0.5,0-0.9,0.4-0.9,1.2
		c0,0.8,0.5,1.2,0.9,1.2c0.4,0,0.7-0.3,0.9-0.7l0.2,0.1C4,14.7,3.6,15.1,3,15.1C2.3,15.1,1.7,14.5,1.7,13.6z"/>
	<path fill="#FFFFFF" d="M8,15.7l1.1-0.9c1.2-1,1.4-1.5,1.4-2.1c0-0.7-0.4-1-0.9-1c-0.4,0-0.7,0.2-0.9,0.5C8.8,12.1,9,12.3,9,12.5
		C9,12.8,8.8,13,8.5,13C8.2,13,8,12.8,8,12.5c0-0.6,0.7-1.2,1.6-1.2c1.1,0,1.6,0.6,1.6,1.3c0,0.7-0.5,1.2-1.5,2l-1.2,0.9v0h1.7
		c0.6,0,0.7-0.2,0.9-0.8l0.2,0l0,1.3H8V15.7z"/>
	<path fill="#FFFFFF" d="M12.1,13.8c0-1.4,0.7-2.5,1.9-2.5c1.2,0,1.9,1.1,1.9,2.5s-0.7,2.5-1.9,2.5C12.8,16.3,12.1,15.2,12.1,13.8z
		 M15.1,13.8c0-1.4-0.4-2.2-1.1-2.2s-1.1,0.8-1.1,2.2S13.2,16,14,16S15.1,15.2,15.1,13.8z"/>
	<path fill="#FFFFFF" d="M16.5,15.9c0.7,0,0.9-0.1,0.9-0.2v-3.6c0-0.3-0.2-0.4-1-0.4v-0.2l1.7-0.1v4.3c0,0.2,0.2,0.2,0.9,0.2v0.2
		h-2.5V15.9z"/>
	<path fill="#FFFFFF" d="M19.7,15.3c0-0.3,0.2-0.5,0.5-0.5c0.3,0,0.4,0.2,0.4,0.5c0,0.2-0.2,0.4-0.3,0.5c0.2,0.2,0.5,0.3,0.9,0.3
		c0.7,0,1-0.5,1-1.3c0-0.8-0.4-1.2-1.2-1.2c-0.3,0-0.6,0.1-0.9,0.3L20,13.7l0.1-2.3h2.8L22.8,12h-2.3l-0.1,1.4
		c0.3-0.1,0.7-0.2,0.9-0.2c1.2,0,1.7,0.7,1.7,1.4c0,0.7-0.6,1.6-1.7,1.6C20.4,16.3,19.7,15.9,19.7,15.3z"/>
	<path fill="#FFFFFF" d="M25.1,14.7h0.2c0.4,0.9,0.9,1.3,1.6,1.3c0.8,0,1.1-0.5,1.1-1c0-0.6-0.4-0.8-1.3-1.1
		c-0.7-0.2-1.5-0.5-1.5-1.4c0-1,0.8-1.6,1.7-1.6c0.4,0,0.7,0.1,1,0.2l0.2-0.2h0.2v1.5h-0.2c-0.2-0.7-0.7-1.2-1.3-1.2
		c-0.5,0-0.9,0.3-0.9,0.9c0,0.6,0.4,0.7,1.3,1c0.7,0.2,1.4,0.5,1.4,1.4c0,0.8-0.4,1.7-1.7,1.7c-0.4,0-0.9-0.1-1.2-0.2l-0.4,0.2h-0.2
		V14.7z"/>
	<path fill="#FFFFFF" d="M29.7,15.3V13h-0.7v-0.2l0.7-0.1v-1l0.6-0.3v1.3h1.1V13h-1.1v2.2c0,0.4,0.2,0.6,0.5,0.6
		c0.2,0,0.4-0.2,0.6-0.4l0.2,0.1c-0.3,0.5-0.5,0.7-1,0.7C30,16.2,29.7,15.9,29.7,15.3z"/>
	<path fill="#FFFFFF" d="M32.1,15.4c0-0.3,0.1-0.6,0.5-0.8c0.6-0.3,1.5-0.5,1.6-0.5v-0.2c0-0.8-0.2-1-0.7-1c-0.2,0-0.4,0.1-0.5,0.2
		c0.1,0.1,0.1,0.3,0.1,0.4c0,0.2-0.1,0.4-0.4,0.4c-0.2,0-0.4-0.2-0.4-0.4c0-0.4,0.6-0.8,1.3-0.8c0.8,0,1.3,0.4,1.3,1.1v1.8
		c0,0.4,0.1,0.5,0.6,0.4l0,0.2c-0.3,0.1-0.5,0.1-0.7,0.1c-0.4,0-0.5-0.2-0.5-0.6h0c-0.3,0.3-0.7,0.6-1.2,0.6
		C32.3,16.2,32.1,15.8,32.1,15.4z M34.2,15.3v-1c-1.1,0.2-1.4,0.4-1.4,0.9c0,0.3,0.2,0.6,0.6,0.6C33.7,15.8,34,15.6,34.2,15.3z"/>
	<path fill="#FFFFFF" d="M36.2,15.3V13h-0.7v-0.2l0.7-0.1v-1l0.6-0.3v1.3H38V13h-1.1v2.2c0,0.4,0.2,0.6,0.5,0.6
		c0.2,0,0.4-0.2,0.6-0.4l0.2,0.1c-0.3,0.5-0.5,0.7-1,0.7C36.6,16.2,36.2,15.9,36.2,15.3z"/>
	<path fill="#FFFFFF" d="M38.5,14.4c0-1.1,0.7-1.9,1.7-1.9c1,0,1.5,0.9,1.4,1.7h-2.4v0v0c0,0.9,0.4,1.5,1.2,1.5
		c0.4,0,0.8-0.3,1.1-0.7l0.2,0.1c-0.3,0.5-0.7,0.9-1.5,0.9C39.1,16.2,38.5,15.5,38.5,14.4z M39.2,14.1l1.7,0
		c0.1-0.7-0.2-1.2-0.8-1.2C39.7,12.8,39.3,13.2,39.2,14.1z"/>
	<path fill="#FFFFFF" d="M43.7,14.7H44c0.4,0.9,0.9,1.3,1.6,1.3c0.8,0,1.1-0.5,1.1-1c0-0.6-0.4-0.8-1.3-1.1
		c-0.7-0.2-1.5-0.5-1.5-1.4c0-1,0.8-1.6,1.7-1.6c0.4,0,0.7,0.1,1,0.2l0.2-0.2H47v1.5h-0.2c-0.2-0.7-0.7-1.2-1.3-1.2
		c-0.5,0-0.9,0.3-0.9,0.9c0,0.6,0.4,0.7,1.3,1c0.7,0.2,1.4,0.5,1.4,1.4c0,0.8-0.4,1.7-1.7,1.7c-0.4,0-0.9-0.1-1.2-0.2l-0.4,0.2h-0.2
		V14.7z"/>
	<path fill="#FFFFFF" d="M48.3,15.3V13h-0.7v-0.2l0.7-0.1v-1l0.6-0.3v1.3h1.1V13H49v2.2c0,0.4,0.2,0.6,0.5,0.6
		c0.2,0,0.4-0.2,0.6-0.4l0.2,0.1c-0.3,0.5-0.5,0.7-1,0.7C48.6,16.2,48.3,15.9,48.3,15.3z"/>
	<path fill="#FFFFFF" d="M50.6,15.9c0.4,0,0.6-0.1,0.6-0.3v-2.4c0-0.2-0.1-0.4-0.6-0.4v-0.2l1.2,0v0.6c0.3-0.3,0.6-0.6,1-0.6
		c0.4,0,0.6,0.3,0.6,0.5c0,0.2-0.2,0.4-0.4,0.4c-0.2,0-0.4-0.1-0.4-0.4c0,0,0-0.1,0-0.1c-0.3,0-0.6,0.2-0.8,0.5v2.2
		c0,0.2,0.1,0.3,0.7,0.3v0.2h-1.9V15.9z"/>
	<path fill="#FFFFFF" d="M53.8,14.4c0-1.1,0.7-1.9,1.7-1.9c1,0,1.5,0.9,1.4,1.7h-2.4v0v0c0,0.9,0.4,1.5,1.2,1.5
		c0.4,0,0.8-0.3,1.1-0.7l0.2,0.1c-0.3,0.5-0.7,0.9-1.5,0.9C54.4,16.2,53.8,15.5,53.8,14.4z M54.5,14.1l1.7,0
		c0.1-0.7-0.2-1.2-0.8-1.2C54.9,12.8,54.6,13.2,54.5,14.1z"/>
	<path fill="#FFFFFF" d="M57.5,14.4c0-1.1,0.7-1.9,1.7-1.9c1,0,1.5,0.9,1.4,1.7h-2.4v0v0c0,0.9,0.4,1.5,1.2,1.5
		c0.4,0,0.8-0.3,1.1-0.7l0.2,0.1c-0.3,0.5-0.7,0.9-1.5,0.9C58.1,16.2,57.5,15.5,57.5,14.4z M58.3,14.1l1.7,0
		c0.1-0.7-0.2-1.2-0.8-1.2C58.7,12.8,58.3,13.2,58.3,14.1z"/>
	<path fill="#FFFFFF" d="M61.7,15.3V13h-0.7v-0.2l0.7-0.1v-1l0.6-0.3v1.3h1.1V13h-1.1v2.2c0,0.4,0.2,0.6,0.5,0.6
		c0.2,0,0.4-0.2,0.6-0.4l0.2,0.1c-0.3,0.5-0.5,0.7-1,0.7C62,16.2,61.7,15.9,61.7,15.3z"/>
	<path fill="#FFFFFF" d="M65.5,13.6c0-1.6,1.2-2.7,2.6-2.7c0.5,0,1,0.1,1.2,0.2l0.2-0.2h0.2v1.5h-0.2c-0.3-0.8-0.8-1.2-1.5-1.2
		c-0.9,0-1.7,0.8-1.7,2.4c0,1.6,0.9,2.4,1.8,2.4c0.5,0,0.8-0.1,1-0.3v-1.4c0-0.2-0.2-0.3-0.8-0.3v-0.2h2.1V14
		c-0.5,0-0.5,0.1-0.5,0.3v1.6c-0.4,0.2-1.2,0.4-1.7,0.4C66.7,16.3,65.5,15.4,65.5,13.6z"/>
	<path fill="#FFFFFF" d="M70.8,15.9c0.4,0,0.6-0.1,0.6-0.3v-4.2c0-0.2-0.1-0.4-0.6-0.4v-0.2l1.2,0v4.9c0,0.2,0.1,0.3,0.6,0.3v0.2
		h-1.8V15.9z"/>
	<path fill="#FFFFFF" d="M73.1,14.4c0-1.1,0.7-1.9,1.7-1.9c1.1,0,1.7,0.7,1.7,1.8c0,1.1-0.7,1.9-1.7,1.9
		C73.8,16.2,73.1,15.5,73.1,14.4z M75.9,14.4c0-1.1-0.4-1.6-1-1.6c-0.6,0-1,0.5-1,1.6c0,1.1,0.4,1.6,1,1.6
		C75.5,16,75.9,15.5,75.9,14.4z"/>
	<path fill="#FFFFFF" d="M77.6,15.6v-4.2c0-0.2-0.1-0.4-0.6-0.4v-0.2l1.2,0V13c0.3-0.3,0.6-0.5,1.1-0.5c0.9,0,1.5,0.7,1.5,1.7
		c0,1-0.6,1.9-1.7,1.9c-0.4,0-0.8-0.1-1.1-0.4l-0.3,0.4h-0.2L77.6,15.6z M80.1,14.3c0-0.8-0.4-1.4-1-1.4c-0.4,0-0.6,0.2-0.9,0.3v2.1
		c0.2,0.5,0.5,0.7,0.9,0.7C79.8,16,80.1,15.4,80.1,14.3z"/>
	<path fill="#FFFFFF" d="M81.5,15.4c0-0.3,0.1-0.6,0.5-0.8c0.6-0.3,1.5-0.5,1.6-0.5v-0.2c0-0.8-0.2-1-0.7-1c-0.2,0-0.4,0.1-0.5,0.2
		c0.1,0.1,0.1,0.3,0.1,0.4c0,0.2-0.1,0.4-0.4,0.4c-0.2,0-0.4-0.2-0.4-0.4c0-0.4,0.6-0.8,1.3-0.8c0.8,0,1.3,0.4,1.3,1.1v1.8
		c0,0.4,0.1,0.5,0.6,0.4l0,0.2c-0.3,0.1-0.5,0.1-0.7,0.1c-0.4,0-0.5-0.2-0.5-0.6h0c-0.3,0.3-0.7,0.6-1.2,0.6
		C81.7,16.2,81.5,15.8,81.5,15.4z M83.6,15.3v-1c-1.1,0.2-1.4,0.4-1.4,0.9c0,0.3,0.2,0.6,0.6,0.6C83.1,15.8,83.4,15.6,83.6,15.3z"/>
	<path fill="#FFFFFF" d="M85.1,15.9c0.4,0,0.6-0.1,0.6-0.3v-4.2c0-0.2-0.1-0.4-0.6-0.4v-0.2l1.2,0v4.9c0,0.2,0.1,0.3,0.6,0.3v0.2
		h-1.8V15.9z"/>
	<path fill="#FFFFFF" d="M91.7,14.3h-1.7L89.6,15c-0.3,0.7-0.2,0.8,0.4,0.9v0.2h-1.7V16c0.5-0.1,0.7-0.4,1-1.1l1.6-3.9h0.3l1.6,4.3
		c0.1,0.4,0.3,0.6,0.9,0.6v0.2h-2.3V16c0.7,0,0.8-0.2,0.7-0.6L91.7,14.3z M91.6,14l-0.7-2.1h0L90,14H91.6z"/>
	<path fill="#FFFFFF" d="M94,14.5c0-1.1,0.7-1.9,1.7-1.9c0.4,0,0.6,0.1,0.8,0.2v-1.3c0-0.2-0.1-0.4-0.6-0.4v-0.2l1.2,0v4.9
		c0,0.2,0.1,0.3,0.6,0.3v0.2l-1.2,0v-0.4c-0.3,0.3-0.6,0.4-1.1,0.4C94.5,16.2,94,15.5,94,14.5z M96.5,15.5v-2.3
		c-0.2-0.3-0.4-0.5-0.8-0.5c-0.5,0-1,0.6-1,1.6c0,0.8,0.4,1.4,1.1,1.4C96.1,15.9,96.3,15.7,96.5,15.5z"/>
	<path fill="#FFFFFF" d="M98.5,13.3c-0.1-0.3-0.2-0.4-0.6-0.5v-0.2h1.7v0.2c-0.4,0-0.5,0.1-0.5,0.2c0,0,0,0.1,0,0.1l0.9,2.2h0
		l0.7-1.9c0.1-0.2,0.1-0.3,0.1-0.4c0-0.2-0.1-0.3-0.5-0.3v-0.2h1.4v0.2c-0.2,0-0.4,0.2-0.6,0.6l-1.2,2.8h-0.4L98.5,13.3z"/>
	<path fill="#FFFFFF" d="M102,15.9c0.5,0,0.6-0.1,0.6-0.3v-2.4c0-0.2-0.1-0.4-0.6-0.4v-0.2l1.2,0v3.1c0,0.2,0.1,0.3,0.6,0.3v0.2H102
		V15.9z M102.4,11.3c0-0.3,0.2-0.5,0.4-0.5c0.3,0,0.4,0.2,0.4,0.5s-0.2,0.5-0.4,0.5C102.6,11.7,102.4,11.5,102.4,11.3z"/>
	<path fill="#FFFFFF" d="M104.3,15.1h0.2c0.3,0.6,0.7,0.9,1.2,0.9c0.4,0,0.6-0.3,0.6-0.6c0-0.4-0.2-0.5-0.9-0.7
		c-0.8-0.2-1.1-0.5-1.1-1c0-0.7,0.5-1.1,1.2-1.1c0.2,0,0.6,0.1,0.7,0.2l0.1-0.2h0.2v1.1h-0.2c-0.2-0.5-0.5-0.8-0.9-0.8
		c-0.4,0-0.6,0.2-0.6,0.6c0,0.3,0.3,0.5,0.9,0.7c0.7,0.2,1.1,0.5,1.1,1c0,0.7-0.4,1.2-1.2,1.2c-0.3,0-0.7-0.1-0.9-0.2l-0.2,0.2h-0.2
		V15.1z"/>
	<path fill="#FFFFFF" d="M107.5,14.4c0-1.1,0.7-1.9,1.7-1.9c1.1,0,1.7,0.7,1.7,1.8c0,1.1-0.7,1.9-1.7,1.9
		C108.1,16.2,107.5,15.5,107.5,14.4z M110.2,14.4c0-1.1-0.4-1.6-1-1.6c-0.6,0-1,0.5-1,1.6c0,1.1,0.4,1.6,1,1.6
		C109.9,16,110.2,15.5,110.2,14.4z"/>
	<path fill="#FFFFFF" d="M111.6,15.9c0.5,0,0.6-0.1,0.6-0.3v-2.4c0-0.2-0.1-0.4-0.6-0.4v-0.2l1.2,0v0.6c0.3-0.3,0.6-0.6,1-0.6
		c0.4,0,0.6,0.3,0.6,0.5c0,0.2-0.2,0.4-0.4,0.4c-0.2,0-0.4-0.1-0.4-0.4c0,0,0-0.1,0-0.1c-0.3,0-0.6,0.2-0.8,0.5v2.2
		c0,0.2,0.1,0.3,0.7,0.3v0.2h-1.9V15.9z"/>
	<path fill="#FFFFFF" d="M114.9,15.1h0.2c0.3,0.6,0.7,0.9,1.2,0.9c0.4,0,0.6-0.3,0.6-0.6c0-0.4-0.2-0.5-0.9-0.7
		c-0.8-0.2-1.1-0.5-1.1-1c0-0.7,0.5-1.1,1.2-1.1c0.2,0,0.6,0.1,0.7,0.2l0.1-0.2h0.2v1.1H117c-0.2-0.5-0.5-0.8-0.9-0.8
		c-0.4,0-0.6,0.2-0.6,0.6c0,0.3,0.3,0.5,0.9,0.7c0.7,0.2,1.1,0.5,1.1,1c0,0.7-0.4,1.2-1.2,1.2c-0.3,0-0.7-0.1-0.9-0.2l-0.2,0.2h-0.2
		V15.1z"/>
	<path fill="#FFFFFF" d="M117.7,17.1c0.6-0.3,0.9-0.6,0.9-0.9l0,0c-0.1,0-0.1,0.1-0.2,0.1c-0.2,0-0.4-0.2-0.4-0.4
		c0-0.3,0.2-0.5,0.5-0.5c0.3,0,0.5,0.2,0.5,0.6c0,0.6-0.4,1-1.2,1.4L117.7,17.1z"/>
	<path fill="#FFFFFF" d="M121.1,15.4c0-0.3,0.1-0.6,0.5-0.8c0.6-0.3,1.5-0.5,1.6-0.5v-0.2c0-0.8-0.2-1-0.7-1c-0.2,0-0.4,0.1-0.5,0.2
		c0.1,0.1,0.1,0.3,0.1,0.4c0,0.2-0.1,0.4-0.4,0.4c-0.2,0-0.4-0.2-0.4-0.4c0-0.4,0.6-0.8,1.3-0.8c0.8,0,1.3,0.4,1.3,1.1v1.8
		c0,0.4,0.1,0.5,0.6,0.4l0,0.2c-0.3,0.1-0.5,0.1-0.7,0.1c-0.4,0-0.5-0.2-0.5-0.6h0c-0.3,0.3-0.7,0.6-1.2,0.6
		C121.4,16.2,121.1,15.8,121.1,15.4z M123.2,15.3v-1c-1.1,0.2-1.4,0.4-1.4,0.9c0,0.3,0.2,0.6,0.6,0.6
		C122.8,15.8,123.1,15.6,123.2,15.3z"/>
	<path fill="#FFFFFF" d="M124.8,15.9c0.4,0,0.6-0.1,0.6-0.3v-4.2c0-0.2-0.1-0.4-0.6-0.4v-0.2l1.2,0v4.9c0,0.2,0.1,0.3,0.6,0.3v0.2
		h-1.8V15.9z"/>
	<path fill="#FFFFFF" d="M127,15.9c0.4,0,0.6-0.1,0.6-0.3v-4.2c0-0.2-0.1-0.4-0.6-0.4v-0.2l1.2,0v4.9c0,0.2,0.1,0.3,0.6,0.3v0.2H127
		V15.9z"/>
	<path fill="#FFFFFF" d="M130.7,15.9c0.5,0,0.6-0.1,0.6-0.3v-2.4c0-0.2-0.1-0.4-0.6-0.4v-0.2l1.2,0v0.6c0.3-0.3,0.6-0.6,1-0.6
		c0.4,0,0.6,0.3,0.6,0.5c0,0.2-0.2,0.4-0.4,0.4c-0.2,0-0.4-0.1-0.4-0.4c0,0,0-0.1,0-0.1c-0.3,0-0.6,0.2-0.8,0.5v2.2
		c0,0.2,0.1,0.3,0.7,0.3v0.2h-1.9V15.9z"/>
	<path fill="#FFFFFF" d="M133.9,15.9c0.5,0,0.6-0.1,0.6-0.3v-2.4c0-0.2-0.1-0.4-0.6-0.4v-0.2l1.2,0v3.1c0,0.2,0.1,0.3,0.6,0.3v0.2
		h-1.8V15.9z M134.3,11.3c0-0.3,0.2-0.5,0.4-0.5c0.3,0,0.4,0.2,0.4,0.5s-0.2,0.5-0.4,0.5C134.5,11.7,134.3,11.5,134.3,11.3z"/>
	<path fill="#FFFFFF" d="M138.3,12.7c0.2-0.3,0.4-0.6,0.8-0.6c0.3,0,0.4,0.2,0.4,0.4c0,0.2-0.1,0.3-0.3,0.3c-0.2,0-0.3-0.1-0.3-0.4
		c-0.2,0-0.3,0.2-0.4,0.4c0.3,0.2,0.5,0.5,0.5,1c0,0.8-0.6,1.2-1.4,1.2c-0.2,0-0.3,0-0.4,0c-0.2,0.1-0.4,0.2-0.4,0.4
		c0,0.2,0.2,0.3,0.8,0.3h0.3c1,0,1.5,0.3,1.5,1c0,0.6-0.6,1.2-1.8,1.2c-1,0-1.5-0.4-1.5-0.8c0-0.4,0.4-0.7,1-0.8v0
		c-0.5-0.1-0.7-0.3-0.7-0.6c0-0.2,0.2-0.5,0.6-0.6c-0.4-0.2-0.7-0.5-0.7-1c0-0.7,0.6-1.2,1.4-1.2C137.9,12.6,138.1,12.6,138.3,12.7z
		 M138.9,16.7c0-0.3-0.2-0.5-1-0.5h-0.6c-0.4,0.1-0.7,0.3-0.7,0.6c0,0.4,0.3,0.7,1.2,0.7C138.5,17.5,138.9,17.2,138.9,16.7z
		 M138.4,13.8c0-0.6-0.3-1-0.7-1c-0.4,0-0.7,0.3-0.7,1c0,0.7,0.3,1,0.7,1C138.1,14.7,138.4,14.5,138.4,13.8z"/>
	<path fill="#FFFFFF" d="M139.7,15.9c0.5,0,0.6-0.1,0.6-0.3v-4.2c0-0.2-0.1-0.4-0.6-0.4v-0.2l1.2,0v2.4c0.4-0.3,0.9-0.6,1.4-0.6
		c0.5,0,0.9,0.4,0.9,1.1v2c0,0.2,0.1,0.3,0.6,0.3v0.2h-1.7v-0.2c0.4,0,0.5-0.1,0.5-0.3v-1.7c0-0.7-0.3-0.9-0.7-0.9
		c-0.3,0-0.7,0.2-0.9,0.3v2.3c0,0.2,0.1,0.3,0.5,0.3v0.2h-1.7V15.9z"/>
	<path fill="#FFFFFF" d="M144.8,15.3V13h-0.7v-0.2l0.7-0.1v-1l0.6-0.3v1.3h1.1V13h-1.1v2.2c0,0.4,0.2,0.6,0.5,0.6
		c0.2,0,0.4-0.2,0.6-0.4l0.2,0.1c-0.3,0.5-0.5,0.7-1,0.7C145.1,16.2,144.8,15.9,144.8,15.3z"/>
	<path fill="#FFFFFF" d="M147.1,15.1h0.2c0.3,0.6,0.7,0.9,1.2,0.9c0.4,0,0.6-0.3,0.6-0.6c0-0.4-0.2-0.5-0.9-0.7
		c-0.8-0.2-1.1-0.5-1.1-1c0-0.7,0.5-1.1,1.2-1.1c0.2,0,0.6,0.1,0.7,0.2l0.1-0.2h0.2v1.1h-0.2c-0.2-0.5-0.5-0.8-0.9-0.8
		c-0.4,0-0.6,0.2-0.6,0.6c0,0.3,0.3,0.5,0.9,0.7c0.7,0.2,1.1,0.5,1.1,1c0,0.7-0.4,1.2-1.2,1.2c-0.3,0-0.7-0.1-0.9-0.2l-0.2,0.2h-0.2
		V15.1z"/>
	<path fill="#FFFFFF" d="M151.7,15.9c0.5,0,0.6-0.1,0.6-0.3v-2.4c0-0.2-0.1-0.4-0.6-0.4v-0.2l1.2,0v0.6c0.3-0.3,0.6-0.6,1-0.6
		c0.4,0,0.6,0.3,0.6,0.5c0,0.2-0.2,0.4-0.4,0.4c-0.2,0-0.4-0.1-0.4-0.4c0,0,0-0.1,0-0.1c-0.3,0-0.6,0.2-0.8,0.5v2.2
		c0,0.2,0.1,0.3,0.7,0.3v0.2h-1.9V15.9z"/>
	<path fill="#FFFFFF" d="M154.9,14.4c0-1.1,0.7-1.9,1.7-1.9c1,0,1.5,0.9,1.4,1.7h-2.4v0v0c0,0.9,0.4,1.5,1.2,1.5
		c0.4,0,0.8-0.3,1.1-0.7l0.2,0.1c-0.3,0.5-0.7,0.9-1.5,0.9C155.5,16.2,154.9,15.5,154.9,14.4z M155.6,14.1l1.7,0
		c0.1-0.7-0.2-1.2-0.8-1.2C156.1,12.8,155.7,13.2,155.6,14.1z"/>
	<path fill="#FFFFFF" d="M158.7,15.1h0.2c0.3,0.6,0.7,0.9,1.2,0.9c0.4,0,0.6-0.3,0.6-0.6c0-0.4-0.2-0.5-0.9-0.7
		c-0.8-0.2-1.1-0.5-1.1-1c0-0.7,0.5-1.1,1.2-1.1c0.2,0,0.6,0.1,0.7,0.2l0.1-0.2h0.2v1.1h-0.2c-0.2-0.5-0.5-0.8-0.9-0.8
		c-0.4,0-0.6,0.2-0.6,0.6c0,0.3,0.3,0.5,0.9,0.7c0.7,0.2,1.1,0.5,1.1,1c0,0.7-0.4,1.2-1.2,1.2c-0.3,0-0.7-0.1-0.9-0.2l-0.2,0.2h-0.2
		V15.1z"/>
	<path fill="#FFFFFF" d="M161.9,14.4c0-1.1,0.7-1.9,1.7-1.9c1,0,1.5,0.9,1.4,1.7h-2.4v0v0c0,0.9,0.4,1.5,1.2,1.5
		c0.4,0,0.8-0.3,1.1-0.7l0.2,0.1c-0.3,0.5-0.7,0.9-1.5,0.9C162.5,16.2,161.9,15.5,161.9,14.4z M162.6,14.1l1.7,0
		c0.1-0.7-0.2-1.2-0.8-1.2C163,12.8,162.7,13.2,162.6,14.1z"/>
	<path fill="#FFFFFF" d="M165.7,15.9c0.4,0,0.6-0.1,0.6-0.3v-2.4c0-0.2-0.1-0.4-0.6-0.4v-0.2l1.2,0v0.6c0.3-0.3,0.6-0.6,1-0.6
		c0.4,0,0.6,0.3,0.6,0.5c0,0.2-0.2,0.4-0.4,0.4c-0.2,0-0.4-0.1-0.4-0.4c0,0,0-0.1,0-0.1c-0.3,0-0.6,0.2-0.8,0.5v2.2
		c0,0.2,0.1,0.3,0.7,0.3v0.2h-1.9V15.9z"/>
	<path fill="#FFFFFF" d="M169.1,13.3c-0.1-0.3-0.2-0.4-0.6-0.5v-0.2h1.7v0.2c-0.4,0-0.5,0.1-0.5,0.2c0,0,0,0.1,0,0.1l0.9,2.2h0
		l0.7-1.9c0.1-0.2,0.1-0.3,0.1-0.4c0-0.2-0.1-0.3-0.5-0.3v-0.2h1.4v0.2c-0.2,0-0.4,0.2-0.6,0.6l-1.2,2.8h-0.4L169.1,13.3z"/>
	<path fill="#FFFFFF" d="M172.6,14.4c0-1.1,0.7-1.9,1.7-1.9c1,0,1.5,0.9,1.4,1.7h-2.4v0v0c0,0.9,0.4,1.5,1.2,1.5
		c0.4,0,0.8-0.3,1.1-0.7l0.2,0.1c-0.3,0.5-0.7,0.9-1.5,0.9C173.1,16.2,172.6,15.5,172.6,14.4z M173.3,14.1l1.7,0
		c0.1-0.7-0.2-1.2-0.8-1.2C173.7,12.8,173.3,13.2,173.3,14.1z"/>
	<path fill="#FFFFFF" d="M176.3,14.5c0-1.1,0.7-1.9,1.7-1.9c0.4,0,0.6,0.1,0.8,0.2v-1.3c0-0.2-0.1-0.4-0.6-0.4v-0.2l1.2,0v4.9
		c0,0.2,0.1,0.3,0.6,0.3v0.2l-1.2,0v-0.4c-0.3,0.3-0.6,0.4-1.1,0.4C176.9,16.2,176.3,15.5,176.3,14.5z M178.9,15.5v-2.3
		c-0.2-0.3-0.4-0.5-0.8-0.5c-0.5,0-1,0.6-1,1.6c0,0.8,0.4,1.4,1.1,1.4C178.4,15.9,178.7,15.7,178.9,15.5z"/>
	<path fill="#FFFFFF" d="M180.7,15.8c0-0.3,0.2-0.5,0.5-0.5c0.3,0,0.5,0.2,0.5,0.5s-0.2,0.5-0.5,0.5
		C180.9,16.3,180.7,16.1,180.7,15.8z"/>
	<path fill="#FFFFFF" d="M0.4,25.7c0.7,0,0.8-0.1,0.8-0.3v-3.9c0-0.2-0.2-0.3-0.8-0.3v-0.2h2.3v0.2c-0.7,0-0.8,0.1-0.8,0.3v3.9
		c0,0.2,0.2,0.3,0.8,0.3v0.2H0.4V25.7z"/>
	<path fill="#FFFFFF" d="M4.6,21.6L4.6,21.6l0,3.1c0,0.7,0.1,0.9,0.8,1v0.2h-2v-0.2c0.7-0.1,0.8-0.3,0.8-1v-3.1
		c0-0.3-0.2-0.5-0.8-0.5v-0.2h1.5l2.9,4h0V22c0-0.7-0.2-0.9-0.9-1v-0.2h2V21c-0.7,0.1-0.8,0.3-0.8,1v4H7.8L4.6,21.6z"/>
	<path fill="#FFFFFF" d="M9.3,24.4h0.2c0.4,0.9,0.9,1.3,1.6,1.3c0.8,0,1.1-0.5,1.1-1c0-0.6-0.4-0.8-1.3-1.1
		c-0.7-0.2-1.5-0.5-1.5-1.4c0-1,0.8-1.6,1.7-1.6c0.4,0,0.7,0.1,1,0.2l0.2-0.2h0.2v1.5h-0.2C12.1,21.4,11.6,21,11,21
		c-0.5,0-0.9,0.3-0.9,0.9c0,0.6,0.4,0.7,1.3,1c0.7,0.2,1.4,0.5,1.4,1.4c0,0.8-0.4,1.7-1.7,1.7c-0.4,0-0.9-0.1-1.2-0.2l-0.4,0.2H9.3
		V24.4z"/>
	<path fill="#FFFFFF" d="M14.4,25.7c0.7,0,0.9-0.1,0.9-0.3v-4.2h-0.4c-0.7,0-0.9,0.4-1.2,1.3l-0.2,0l0-1.6h4.3l0.1,1.6l-0.2,0
		c-0.3-0.9-0.4-1.3-1.2-1.3H16v4.2c0,0.2,0.2,0.3,0.9,0.3v0.2h-2.5V25.7z"/>
	<path fill="#FFFFFF" d="M18,23.7h2v0.5h-2V23.7z"/>
	<path fill="#FFFFFF" d="M20.8,25c0-0.3,0.2-0.5,0.5-0.5c0.3,0,0.4,0.2,0.4,0.5c0,0.2-0.2,0.4-0.3,0.5c0.2,0.2,0.5,0.3,0.9,0.3
		c0.7,0,1-0.5,1-1.3c0-0.8-0.4-1.2-1.2-1.2c-0.3,0-0.6,0.1-0.9,0.3l-0.1-0.1l0.1-2.3H24l-0.1,0.6h-2.3l-0.1,1.4
		c0.3-0.1,0.7-0.2,0.9-0.2c1.2,0,1.7,0.7,1.7,1.4c0,0.7-0.6,1.6-1.7,1.6C21.5,26,20.8,25.6,20.8,25z"/>
	<path fill="#FFFFFF" d="M25.3,25.8l2.4-4.1h-1.9c-0.5,0-0.5,0.2-0.7,0.9h-0.2l0-1.4h3.3v0.2L26.9,24L26,26h-0.7V25.8z"/>
	<path fill="#FFFFFF" d="M29.1,25.9c0.8-0.1,2.1-0.7,2.3-2.3l0,0c-0.3,0.5-0.7,0.7-1.2,0.7c-0.9,0-1.5-0.7-1.5-1.5
		c0-0.9,0.7-1.7,1.8-1.7c1.2,0,1.7,0.9,1.7,2c0,0.8-0.3,1.5-0.7,2c-0.6,0.6-1.2,0.9-2.4,1.1V25.9z M31.4,22.6c0-0.8-0.4-1.3-1-1.3
		c-0.6,0-1,0.6-1,1.4c0,0.8,0.4,1.3,1,1.3C31,24,31.4,23.4,31.4,22.6z"/>
	<path fill="#FFFFFF" d="M33,25c0-0.3,0.2-0.5,0.5-0.5c0.3,0,0.4,0.2,0.4,0.5c0,0.2-0.2,0.4-0.3,0.5c0.2,0.2,0.5,0.3,0.9,0.3
		c0.7,0,1-0.5,1-1.3c0-0.8-0.4-1.2-1.2-1.2c-0.3,0-0.6,0.1-0.9,0.3l-0.1-0.1l0.1-2.3h2.8l-0.1,0.6h-2.3l-0.1,1.4
		c0.3-0.1,0.7-0.2,0.9-0.2c1.2,0,1.7,0.7,1.7,1.4c0,0.7-0.6,1.6-1.7,1.6C33.7,26,33,25.6,33,25z"/>
</g>
</svg>
